<svg width="42" height="42" viewBox="0 0 42 42" fill="none" xmlns="http://www.w3.org/2000/svg">
<path d="M41.5915 16.8871H39.9V16.8H21V25.2H32.8681C31.1367 30.0898 26.4841 33.6 21 33.6C14.0416 33.6 8.4 27.9583 8.4 21C8.4 14.0416 14.0416 8.4 21 8.4C24.2119 8.4 27.1341 9.6117 29.359 11.5909L35.2989 5.6511C31.5483 2.15565 26.5314 0 21 0C9.40275 0 0 9.40275 0 21C0 32.5972 9.40275 42 21 42C32.5972 42 42 32.5972 42 21C42 19.5919 41.8551 18.2175 41.5915 16.8871Z" fill="#FFC107"/>
<path d="M2.42139 11.2255L9.32093 16.2855C11.1878 11.6634 15.7091 8.4 21.0001 8.4C24.212 8.4 27.1342 9.6117 29.3591 11.5909L35.299 5.6511C31.5484 2.15565 26.5315 0 21.0001 0C12.934 0 5.93889 4.55385 2.42139 11.2255Z" fill="#FF3D00"/>
<path d="M21.0002 42C26.4245 42 31.3532 39.9242 35.0796 36.5484L28.5801 31.0485C26.4009 32.7058 23.738 33.6022 21.0002 33.6C15.5381 33.6 10.9002 30.1172 9.15303 25.2567L2.30493 30.533C5.78043 37.3338 12.8385 42 21.0002 42Z" fill="#4CAF50"/>
<path d="M41.5915 16.8872H39.9V16.8H21V25.2H32.8681C32.0399 27.5273 30.548 29.5609 28.5768 31.0496L28.5799 31.0475L35.0794 36.5474C34.6195 36.9653 42 31.5 42 21C42 19.592 41.8551 18.2175 41.5915 16.8872Z" fill="#1976D2"/>
</svg>
